<svg width="63" height="64" viewBox="0 0 63 64" fill="none" xmlns="http://www.w3.org/2000/svg">
<path d="M17.5969 53.1742L18.5465 53.7291C22.5173 56.0845 27.08 57.33 31.7167 57.33H31.729C45.9967 57.33 57.6008 45.7259 57.6131 31.4582C57.6131 24.5401 54.9248 18.0414 50.0415 13.158C45.1952 8.28704 38.6101 5.54942 31.7413 5.57408C17.4613 5.57408 5.85722 17.1782 5.84489 31.4459C5.83256 36.3169 7.2137 41.0892 9.80335 45.2203L10.4199 46.1945L7.80562 55.7392L17.5969 53.1742ZM0.320312 63.1382L4.73504 47.0084C2.02208 42.2854 0.579277 36.9334 0.591609 31.4459C0.591609 14.2802 14.5634 0.320801 31.729 0.320801C40.0529 0.320801 47.8711 3.56402 53.7533 9.44622C59.6355 15.3284 62.8664 23.1467 62.8664 31.4705C62.8541 48.6362 48.8947 62.5956 31.729 62.5956H31.7167C26.5004 62.5956 21.3828 61.2884 16.8324 58.8098L0.320312 63.1382Z" fill="#B3B3B3"/>
<path d="M0 62.8174L4.42706 46.6876C1.68944 41.9523 0.258965 36.588 0.271296 31.1251C0.271296 13.9594 14.243 0 31.4087 0C39.7326 0 47.5508 3.24322 53.433 9.12542C59.3152 15.0076 62.5461 22.8259 62.5461 31.1497C62.5338 48.3154 48.562 62.2748 31.4087 62.2748H31.3964C26.1801 62.2748 21.0624 60.9676 16.5121 58.489L0 62.8174Z" fill="white"/>
<path d="M31.4085 5.2537C17.1285 5.2537 5.52442 16.8578 5.51208 31.1255C5.51208 35.9965 6.89323 40.7688 9.48287 44.8999L10.0995 45.8741L7.48515 55.4188L17.2765 52.8538L18.226 53.4088C22.1968 55.7641 26.7595 57.0096 31.3962 57.0096H31.4085C45.6763 57.0096 57.2803 45.4055 57.2927 31.1378C57.3173 24.2691 54.592 17.684 49.721 12.8377C44.8747 7.979 38.2773 5.24137 31.4085 5.2537Z" fill="url(#paint0_linear_99_177)"/>
<path fill-rule="evenodd" clip-rule="evenodd" d="M23.6273 18.1153C23.0477 16.8204 22.4311 16.7958 21.8762 16.7711L20.384 16.7588C19.8661 16.7588 19.0276 16.9561 18.3123 17.733C17.5971 18.5099 15.587 20.3966 15.587 24.2194C15.587 28.0422 18.374 31.7417 18.7686 32.2597C19.1632 32.7776 24.1452 40.8795 32.0621 43.9994C38.6349 46.589 39.9667 46.0711 41.3972 45.9478C42.8276 45.8121 45.9969 44.0611 46.6504 42.2483C47.304 40.4355 47.304 38.8694 47.1067 38.5488C46.9094 38.2282 46.3915 38.0309 45.6146 37.6363C44.8377 37.2417 41.0149 35.3672 40.2997 35.1083C39.5844 34.8493 39.0665 34.7137 38.5486 35.5029C38.0306 36.2798 36.5385 38.0309 36.0822 38.5488C35.626 39.0667 35.1697 39.1284 34.3928 38.7461C33.6159 38.3515 31.1126 37.5376 28.1407 34.8863C25.8223 32.8269 24.2685 30.2743 23.8122 29.4974C23.356 28.7205 23.7629 28.3012 24.1575 27.9066C24.5028 27.5613 24.9344 26.9941 25.329 26.5378C25.7236 26.0815 25.847 25.7609 26.1059 25.243C26.3649 24.725 26.2416 24.2688 26.0443 23.8741C25.8223 23.5042 24.3178 19.6567 23.6273 18.1153Z" fill="white"/>
<defs>
<linearGradient id="paint0_linear_99_177" x1="31.2677" y1="8.36263" x2="31.5301" y2="52.5976" gradientUnits="userSpaceOnUse">
<stop stop-color="#57D163"/>
<stop offset="1" stop-color="#23B33A"/>
</linearGradient>
</defs>
</svg>
